<svg width="68" height="40" viewBox="0 0 68 40" fill="none" xmlns="http://www.w3.org/2000/svg">
<g clip-path="url(#clip0_1_4084)">
<path d="M41.5788 17.3721C39.6831 17.3312 38.7764 16.9565 37.8934 15.9758C37.0104 14.9951 36.7171 13.5926 36.7171 11.9128L36.6924 0.912086L40.7781 0.0153253C40.8973 -0.0103101 41.0208 -0.00929054 41.1395 0.018312C41.2583 0.0459144 41.3694 0.0994119 41.4648 0.174935C41.5602 0.250457 41.6376 0.346121 41.6913 0.455015C41.745 0.563908 41.7737 0.68331 41.7754 0.804596L41.7898 2.69025H45.1294V6.79528H41.7898V11.4838C41.7898 12.098 41.9438 12.5324 42.2519 12.787C42.56 13.0416 43.0324 13.1692 43.6691 13.1699C44.2879 13.1655 44.902 13.0618 45.4876 12.8627V16.6934C44.3987 17.1418 43.4807 17.41 41.5768 17.367" fill="#F53600"/>
<path d="M15.549 10.0127L13.4608 9.71177C13.4267 9.70675 13.3954 9.68967 13.3728 9.66364C13.3502 9.63762 13.3378 9.60438 13.3378 9.56999C13.3378 9.53561 13.3502 9.50237 13.3728 9.47634C13.3954 9.45031 13.4267 9.43323 13.4608 9.42821L15.549 9.12827C15.998 9.0417 16.4245 8.86497 16.8025 8.60887C17.1805 8.35277 17.5019 8.02268 17.7473 7.63878L21.1703 2.27256H15.1785L11.4324 9.11496H11.1833V1.79039C11.1833 1.57319 11.0966 1.36489 10.9422 1.2113C10.7878 1.05772 10.5783 0.971436 10.36 0.971436H5.99121V16.8797H11.1833V10.0209H11.4324L14.7833 16.1416C14.9025 16.3601 15.0789 16.5425 15.2938 16.6696C15.5086 16.7966 15.754 16.8636 16.0039 16.8633H21.1703L17.7473 11.5032C17.5019 11.1194 17.1805 10.7893 16.8025 10.5332C16.4245 10.2771 15.998 10.1003 15.549 10.0138" fill="#F53600"/>
<path d="M27.9707 5.38859C29.6997 5.38859 30.3532 6.57506 30.3532 8.1362H25.4925C25.4925 6.50852 26.1409 5.38859 27.9707 5.38859ZM33.2534 13.2854C33.2139 13.1778 33.1522 13.0797 33.0723 12.9973C32.9924 12.9149 32.8959 12.8501 32.7893 12.8071C32.6826 12.7641 32.568 12.7438 32.453 12.7475C32.3379 12.7513 32.2249 12.779 32.1213 12.8288C31.0848 13.3388 29.9254 13.5498 28.7745 13.4379C27.2585 13.2793 25.8928 12.5483 25.5583 11.2728H34.6067C34.6067 11.2728 34.8424 10.7548 34.9206 9.40866C35.218 4.30041 31.9535 1.7688 27.9573 1.7688C23.7995 1.7688 20.3467 4.23591 20.3467 9.62875C20.3467 14.1883 23.7192 17.372 28.5481 17.372C30.6064 17.372 32.6945 16.852 34.0026 16.0146L34.1662 15.9122V15.8928C34.1662 15.8928 33.6589 14.3951 33.2554 13.2885" fill="#F53600"/>
<path d="M54.202 13.1922C52.0716 13.1626 51.2473 11.971 51.2781 9.87137C51.309 7.77177 52.7786 5.65271 54.2627 5.65066C55.6006 5.65066 57.1227 7.85878 57.0918 9.95839C57.061 12.058 56.037 13.2189 54.1979 13.1922H54.202ZM54.1824 1.7688C49.4339 1.7688 46.4473 5.02518 46.4473 9.5704C46.4473 14.1463 48.8236 17.372 54.1824 17.372C59.637 17.372 61.9176 14.1463 61.9176 9.5704C61.9176 5.02518 58.9906 1.7688 54.1824 1.7688Z" fill="#F53600"/>
<path d="M46.8477 36.4416H51.9204V19.8167C51.9201 19.6945 51.8924 19.574 51.8392 19.4638C51.786 19.3537 51.7087 19.2568 51.613 19.1803C51.5173 19.1037 51.4056 19.0494 51.286 19.0214C51.1665 18.9933 51.0421 18.9923 50.9221 19.0182L46.8477 19.9129V36.4416Z" fill="#F53600"/>
<path d="M40.9747 30.7345C40.7907 30.7338 40.6119 30.7948 40.4671 30.9078C40.3224 31.0207 40.2202 31.179 40.1771 31.3569C39.9177 32.4481 39.2087 33.0306 38.1013 33.0306C36.3188 33.0306 35.3565 31.6466 35.3565 29.1109C35.3565 26.8526 35.9802 25.1911 37.8574 25.1911C39.2066 25.1911 39.8344 25.876 40.1555 26.9314C40.2056 27.1008 40.3095 27.2496 40.4515 27.3554C40.5936 27.4613 40.7663 27.5187 40.9438 27.519H45.1932C44.5829 23.8255 42.4999 21.3103 38.2752 21.3103C33.5267 21.3103 30.54 24.5667 30.54 29.1119C30.54 33.6878 32.9164 36.9135 38.2752 36.9135C43.0618 36.9135 44.7126 34.4321 45.2159 30.7355L40.9747 30.7345Z" fill="#F53600"/>
<path d="M10.4347 30.7345C10.251 30.7348 10.0727 30.7963 9.92812 30.9091C9.7836 31.0219 9.68114 31.1795 9.63705 31.3569C9.3777 32.4481 8.66861 33.0306 7.56226 33.0306C5.77873 33.0306 4.81647 31.6466 4.81647 29.1109C4.81647 26.8526 5.44014 25.1911 7.31835 25.1911C8.66655 25.1911 9.29434 25.876 9.61544 26.9314C9.66559 27.1008 9.76944 27.2496 9.91151 27.3554C10.0536 27.4613 10.2262 27.5187 10.4038 27.519H14.6532C14.0429 23.8255 11.9599 21.3103 7.73516 21.3103C2.98456 21.3093 0 24.5657 0 29.1109C0 33.6868 2.37633 36.9125 7.73516 36.9125C12.5228 36.9125 14.1726 34.4311 14.6758 30.7345H10.4347Z" fill="#F53600"/>
<path d="M30.566 21.8425C29.7777 24.0824 27.5886 35.9696 26.0315 37.6075C24.0061 40.2865 20.6037 40.5691 17.4092 39.1901L18.1502 35.0298C18.1502 35.0298 22.5756 36.5521 22.626 33.9109H20.5677C19.8319 33.9108 19.1164 33.6703 18.5313 33.2264C17.9461 32.7826 17.5237 32.1599 17.329 31.454L14.6758 21.8425H19.9564L22.6878 31.6045C22.6887 31.6314 22.6949 31.6579 22.706 31.6824C22.7172 31.7069 22.7331 31.729 22.7528 31.7473C22.7725 31.7657 22.7957 31.7801 22.821 31.7896C22.8463 31.7991 22.8733 31.8035 22.9003 31.8026C22.9273 31.8017 22.9539 31.7956 22.9786 31.7845C23.0032 31.7734 23.0254 31.7576 23.0439 31.7379C23.0624 31.7183 23.0768 31.6952 23.0863 31.6701C23.0959 31.6449 23.1003 31.6181 23.0995 31.5912L25.095 21.8425H30.566Z" fill="#F53600"/>
<path d="M60.9524 24.9302C62.6814 24.9302 63.3349 26.1167 63.3349 27.6778H58.4742C58.4742 26.0491 59.1236 24.9302 60.9524 24.9302ZM66.2351 32.826C66.1956 32.7184 66.1339 32.6203 66.054 32.5379C65.9741 32.4555 65.8776 32.3907 65.771 32.3477C65.6643 32.3046 65.5497 32.2844 65.4347 32.2881C65.3196 32.2918 65.2066 32.3195 65.103 32.3694C64.0673 32.882 62.9076 33.0948 61.7562 32.9836C60.2413 32.8239 58.8745 32.093 58.5411 30.8175H67.5884C67.5884 30.8175 67.8251 30.2995 67.9033 28.9533C68.1997 23.8451 64.9352 21.3135 60.939 21.3135C56.7822 21.3135 53.3232 23.7806 53.3232 29.1734C53.3232 33.733 56.6958 36.9167 61.5256 36.9167C63.584 36.9167 65.6721 36.3966 66.974 35.5593L67.1376 35.4569V35.4374C67.1376 35.4374 66.6303 33.9408 66.2268 32.8332" fill="#F53600"/>
</g>
<defs>
<clipPath id="clip0_1_4084">
<rect width="67.9245" height="40" fill="white"/>
</clipPath>
</defs>
</svg>
