<?xml version="1.0" standalone="no"?>
<!DOCTYPE svg PUBLIC "-//W3C//DTD SVG 20010904//EN"
 "http://www.w3.org/TR/2001/REC-SVG-20010904/DTD/svg10.dtd">
<svg version="1.0" xmlns="http://www.w3.org/2000/svg"
 width="512.000000pt" height="512.000000pt" viewBox="0 0 512.000000 512.000000"
 preserveAspectRatio="xMidYMid meet">
<metadata>
Created by potrace 1.14, written by Peter Selinger 2001-2017
</metadata>
<g transform="translate(0.000000,512.000000) scale(0.100000,-0.100000)"
fill="#000000" stroke="none">
<path d="M3005 4046 c-27 -7 -86 -21 -130 -30 -44 -10 -87 -20 -96 -22 -15 -4
-16 -48 -14 -472 2 -484 5 -521 46 -604 30 -60 104 -124 167 -144 80 -26 272
-26 365 0 37 10 70 23 74 30 4 6 8 73 8 149 1 120 -1 137 -15 131 -8 -3 -49
-8 -91 -11 -91 -7 -140 11 -160 59 -10 25 -17 277 -10 401 1 15 14 17 125 17
l124 0 -1 154 -1 153 -116 0 c-64 0 -121 3 -126 6 -6 3 -9 36 -8 74 2 120 -22
139 -141 109z"/>
<path d="M455 3982 c-3 -3 -5 -272 -5 -599 l0 -593 195 0 c179 0 195 1 196 18
1 9 1 124 1 255 0 172 3 237 12 237 6 0 16 -10 22 -23 54 -112 242 -438 265
-459 l29 -28 211 0 c202 0 209 1 200 19 -34 63 -267 418 -284 433 -34 30 -118
66 -167 71 -157 19 -161 30 -18 52 100 15 154 38 196 85 13 14 54 75 93 135
38 61 97 152 129 204 33 51 60 95 60 97 0 2 -101 4 -224 4 l-224 0 -20 -38
c-18 -34 -109 -200 -227 -415 -20 -37 -40 -65 -44 -62 -5 2 -8 120 -9 262 0
324 1 306 -16 329 -13 17 -29 19 -190 20 -96 1 -177 -1 -181 -4z"/>
<path d="M1965 3913 c-259 -53 -421 -255 -430 -538 -11 -304 151 -528 435
-602 67 -17 223 -23 316 -11 96 12 262 71 279 99 6 8 -45 163 -67 207 -18 34
-49 36 -129 7 -157 -56 -328 -25 -412 75 -52 62 -61 60 312 60 l339 0 6 23
c15 52 19 228 6 289 -19 97 -74 202 -134 262 -53 52 -151 107 -216 122 -19 4
-42 9 -50 11 -44 11 -194 8 -255 -4z m197 -267 c63 -11 109 -73 122 -163 l4
-33 -61 -1 c-34 0 -118 -1 -185 -2 l-124 -2 5 46 c10 87 53 141 127 156 47 10
51 10 112 -1z"/>
<path d="M3968 3919 c-227 -35 -401 -197 -453 -423 -16 -67 -21 -213 -10 -281
39 -246 176 -396 410 -447 76 -17 245 -17 327 -1 267 54 422 261 418 561 -1
107 -6 145 -31 221 -60 188 -201 317 -395 361 -60 14 -203 19 -266 9z m176
-302 c44 -22 100 -96 127 -167 40 -105 34 -226 -16 -301 -62 -95 -245 -109
-333 -26 -36 33 -53 84 -57 167 -11 209 148 395 279 327z"/>
<path d="M3682 2596 c-78 -18 -145 -36 -148 -39 -5 -4 -8 -968 -4 -1217 l0
-25 187 0 188 1 3 636 2 637 -22 21 c-28 25 -34 25 -206 -14z"/>
<path d="M478 2449 c-231 -35 -398 -186 -457 -414 -17 -65 -20 -102 -17 -195
7 -190 49 -303 151 -405 63 -64 106 -91 191 -119 76 -25 90 -27 209 -31 305
-12 475 110 534 379 l18 83 -174 -1 c-171 -1 -175 -1 -194 -25 -10 -13 -19
-30 -19 -39 0 -26 -49 -81 -85 -96 -47 -20 -125 -13 -169 16 -70 46 -107 155
-101 298 7 176 68 262 184 262 89 -1 137 -35 174 -123 8 -20 20 -39 25 -43 13
-8 341 -11 349 -3 10 11 -27 139 -59 203 -58 116 -154 197 -278 234 -70 21
-206 30 -282 19z"/>
<path d="M2810 2453 c-244 -31 -411 -166 -482 -388 -35 -110 -32 -326 6 -435
58 -165 159 -263 324 -318 66 -22 96 -25 212 -26 152 -1 216 11 302 56 103 54
181 164 213 300 27 115 40 106 -152 104 -93 -1 -174 -5 -181 -10 -7 -4 -23
-31 -36 -59 -13 -29 -32 -59 -42 -68 -43 -37 -121 -45 -188 -19 -37 14 -81 68
-101 122 -23 62 -27 236 -7 304 27 94 88 146 170 146 88 -1 138 -36 171 -119
7 -18 19 -37 26 -43 19 -15 348 -17 353 -2 2 7 -4 38 -13 69 -55 197 -158 313
-325 364 -60 18 -191 29 -250 22z"/>
<path d="M4528 2455 c-2 -2 -28 -6 -58 -10 -232 -29 -414 -216 -446 -460 -35
-266 49 -476 241 -603 47 -31 154 -76 210 -88 71 -15 261 -12 345 6 91 19 230
76 230 94 0 6 -14 53 -31 105 -43 128 -68 150 -135 116 -130 -64 -329 -46
-422 39 -22 19 -52 67 -52 81 0 3 153 5 339 5 315 0 340 1 345 18 22 80 25
231 6 313 -55 232 -232 371 -485 383 -46 2 -85 2 -87 1z m171 -305 c36 -25 61
-78 64 -132 l2 -41 -182 -1 -183 -1 6 45 c7 54 44 121 76 138 65 34 164 30
217 -8z"/>
<path d="M1110 2405 c0 -11 41 -164 79 -295 10 -36 38 -135 61 -220 71 -261
75 -273 139 -326 51 -43 113 -59 219 -58 84 1 92 -1 92 -18 0 -27 -29 -67 -59
-82 -38 -19 -116 -19 -201 -2 -41 9 -76 16 -77 16 -2 0 -3 -10 -3 -22 0 -13
-7 -54 -15 -93 -13 -64 -23 -129 -28 -179 -2 -16 12 -25 68 -45 102 -36 266
-40 356 -8 78 27 162 85 209 143 74 92 131 279 276 897 2 9 6 25 8 35 2 9 16
69 31 132 15 63 28 119 29 124 0 6 -80 10 -201 11 -112 0 -203 0 -203 -1 0 -2
-56 -272 -75 -361 -3 -13 -7 -35 -11 -50 -3 -16 -18 -93 -35 -173 -16 -80 -29
-148 -29 -152 0 -5 -6 -8 -14 -8 -9 0 -33 70 -76 223 -34 122 -65 233 -70 247
-5 14 -23 79 -41 145 -18 66 -34 122 -36 125 -2 2 -92 5 -199 5 -136 0 -194
-3 -194 -10z"/>
</g>
</svg>
