<svg width="32" height="32" viewBox="0 0 32 32" fill="none" xmlns="http://www.w3.org/2000/svg">
<path fill-rule="evenodd" clip-rule="evenodd" d="M18.6665 5.33341C18.6665 6.80617 17.4726 8.00008 15.9998 8.00008C14.5271 8.00008 13.3332 6.80617 13.3332 5.33341C13.3332 3.86066 14.5271 2.66675 15.9998 2.66675C17.4726 2.66675 18.6665 3.86066 18.6665 5.33341ZM18.5732 11.0801L21.9332 19.5067C22.2932 20.3867 21.6399 21.3334 20.7065 21.3334H18.6665V28.0001C18.6665 28.7334 18.0665 29.3334 17.3332 29.3334H15.9999H14.6665C13.9332 29.3334 13.3332 28.7334 13.3332 28.0001V21.3334H11.2932C10.3599 21.3334 9.70655 20.3867 10.0399 19.5067L13.3999 11.0801C13.8265 10.0134 14.8532 9.33341 15.9865 9.33341C17.1332 9.34675 18.1465 10.0267 18.5732 11.0801Z" fill="#56468F"/>
</svg>
